<mxfile host="app.diagrams.net" modified="2023-04-19T19:21:47.915Z" agent="Mozilla/5.0 (Windows NT 10.0; Win64; x64) AppleWebKit/537.36 (KHTML, like Gecko) Chrome/112.0.0.0 Safari/537.36 Edg/112.0.1722.48" etag="48b41BRV1YEB2_UM3B6O" version="21.1.8" type="github">
  <diagram name="Page-1" id="74e2e168-ea6b-b213-b513-2b3c1d86103e">
    <mxGraphModel dx="2602" dy="688" grid="1" gridSize="10" guides="1" tooltips="1" connect="1" arrows="1" fold="1" page="1" pageScale="1" pageWidth="1100" pageHeight="850" background="none" math="0" shadow="0">
      <root>
        <mxCell id="0" />
        <mxCell id="1" parent="0" />
        <mxCell id="wgFSj3JI18xGvirok_kf-2" value="Inicio" style="ellipse;whiteSpace=wrap;html=1;" vertex="1" parent="1">
          <mxGeometry x="310" y="50" width="160" height="100" as="geometry" />
        </mxCell>
        <mxCell id="wgFSj3JI18xGvirok_kf-4" value="" style="shape=stencil(lVjbcttACP0avTKw7PU5Tf8jM3FqT9044zi9/H1R3XUMTljpTZY50gEOl9XEd6/bh5fNFPD1dDx83/zaPZ62E3+ZQtg9bzfH3UmuJr6f+O7pcNx8Ox7enh/Pv18eZsv56sfh5/yE32dcjYB5RgX8c74TgMu/G1/P9vvd87U9QqvKnhCIHQABNg1IwNEHkGaEkJNLqWpKIfdHfArQPjMBewAC0pQ4Q/R8CBYQL3H7GMCQNaUYoWQHUACTAiQERAfQoKIGMCTH6SY+RA0oUBwfmvigM50ZqDmA2IVwATQ3rAKIOkolQAkuIGunS4LmhLUlKBoguQ+O+FrpUb8AEmSnHlqFoNUqmWGHEiHaV7QMyUm1cGL9CrmTnTDdakNYeoBSbddokjmHkijhf1e5AlRHTLFAMG0DfYFLDcdmX+GVEJWeqCsAOb2vAGUbJXYYUX/aVRo8LaF1WfJMThZiz9HFPgE69sRW3FIf6CRB+mgyjNhNcyRowQLQqYZUgXANoAgBXkOp5t7aFzotQbTV44d1lpl5g583kU01PvjCkFZcdaOclecNrNBbykJp59o7ysLiScE2+2F9ZshkX+G1AKmfdlOfXqrnTaTZMHltLNww8vvk2ka81p76MFs4Gnjl7Im9XS0cbqmHe+H0TJC0TAfjOdmlZzD/b0p5sGAUu+cNNhgRUFi1I1GAtmoLo2xXnsGeJ0Oqak0PNkmqFjDYVanZPW+wDc8ALdPBvi2UmqY02OhngE704MwglFBTGpxK5HlNO+0feyRvphdRX5k+I2Q6tlSak2YpzaQ9RiiOsvkSwHf76KSAix3M2LP+caeQ+KCx93Sdoj3w+PY59Bm8jI80Bl7jrzSqZPl78ZQjodnt/HzJeQ3LtFwPq4/ZQ3u5eD/TP+32+/Mngev/7TcAuXX+fsD3fwE=);lineShape=1;" vertex="1" parent="1">
          <mxGeometry x="315.2660579781334" y="240.75118775741498" width="5.467884043733193" height="77.91386158503758" as="geometry" />
        </mxCell>
        <mxCell id="wgFSj3JI18xGvirok_kf-5" value="" style="shape=stencil(lVfZctswDPwavWJIggf4nKb/kZk4taaunXGcHn9fqBoqAmVt2zdZxhLEYnFo4Ie349PrYQju7Xa9fD38GJ9vx4E/DSGM5+PhOt70aeDHgR9eLtfDl+vl/fw8/359miynp2+X79MJP2cck/MTKLhf84si5OTPm8+z/Wk8r+x9oFAMIBdKYR8QPIVgAEnIl30Ae/JiALG2I+4CoqfaARxx3AckpmgB6jPwPiBncjZojQrFUCpVNgDvKIMYaiDvDMCRIHum6jt754B9opI6e07AvlCMNgASQGkVKtXmgBjdv1K2KcAq8m6Jb7mQpsBDD8XqzkcqCCAkNsm+UMUcJcuRkhorTELnIQRyyEMkF3sA9BD6YtO8FeRBZdkJVaULhCSVou9Z8sCDSGN9ATAV0GEUkKyUtHagh0ou25aEa821DreUf/N4395TsrXjce0wBRsAvr/KwsfeHtVybhn6uA/qXipsrl28EZ1f+9rP7YA9+2r5ryTYXiz/qoiEmov2/05CSgHuRm6j6oIAmaINQTnNKGf/C5ClH65mTkIjRAeAjSFyo+H+VJN+MqeI5+ZGR1nzACqTVQdd0w7QQ9h4ENdq436bl6bkBaDdALWjNiUX6ak9IKm00xb7CkPOfatYDaL7pDYVrBwg5TGx6wMQEMBmT9ApFICMdEh2BCWoIp1gnX2A93f9hJq6K5DEZoyL3h/wqWuKLX0tpAjvU+19xLdNaYcfsXWsqxsamNyi+8d9+e/7tT58LOcv4+k07/br//tlXl/NHwL8+Bs=);lineShape=1;" vertex="1" parent="1">
          <mxGeometry x="316.9756914473321" y="232.7815488582787" width="30.81772877719959" height="15.650121703239392" as="geometry" />
        </mxCell>
        <mxCell id="wgFSj3JI18xGvirok_kf-7" value="" style="shape=stencil(lVnZbttADPwavxJ7cK/nHv8RoGljNE2KNL3+vqMaK5uUNEXfHIeUluQMyVmf8ptvD3df708pfHt9ef58//P84fXhlN+eUjo/Pdy/nF/x6ZTfnfKbj88v959enr8/fbj8/fVusVw+fXn+sTzh18UvSIuLUwq/L1+MIkn/fvP+Yv94frqxz5Kbtc+i8dgeTwvWPkobx/ZNsrXvQ0Y4th9S7Xl6k9aO7WOS5ByKZHKgWCR065BkJOLQpGfrEKSQEFCDUoxD6xKZQ5aYrEORSo6EKlRb5ZYlkKBRhuHeEKRWAosgQY1D7ZLIG3KU4RyqBBJDztIsMmqWTrKUi6itdI1SmUOTZAtXhig70pBoYyiALyGDRo+lAn504rCWaXXIksiRtMysrw6ROzSpNmgdkhihw8Tm6tAkEMaVtHmDTobsO4CQNq2aRAmWSvd80EAJVIN0WwfUvhbikD2BMm+TAHOq1iHRvgS6dItWUCqTwrUo2cawkJZQFJTvNq1oC4U5VA9vNB4GjdY9+NKa6F0HNEa1aY19snzfYQXC6lClkDp0lWKhEZW2+47nuSMlyuneRW2WYqCcHqirbfd94n3fPkmwUMIRCX0wkKujD5+gdSJ5rdqs+7599yMdZCMZhb3jP2YFO8+Y7eTm+QSmsNfq7Nmogn2z9lGU5RMLSHH5UXL+GNb4VirPEx6+wEJuBe2RfXU9fkLwyD57AEXS7FAwF3CdC8qRveNYpdsI7N1Qq5MR+/bY6NxclsbtHSB0JvjIPtvzo1MyQK9D/gqIzuLFeWw+I11clnjt84MMBtC+JQybHLB3TTTQzWvBQ/L2ZJQtePOE/wf+3Q4feQNaFcE1/4E8f5eQbD1YXuABFHnAza11nGDoWN5+8IA3hFH+/P+zb7OBXycSLYDOAXQz8pjCwQhzCY2RUzLORWN1yFLY2B5eN0Yu6yAT3RSOfHdfZKJzwKJMstrzXANWmEYqiXqcKLvZtzIhfht+MwCQWAzY6LobZY2OmqZ+G4LgZmtsAxUtNLD3RvKGOvwbslLRhc3asT8jKkL/ql7WQbexKwvIRAdv5WiF/miWP6p0RSuQurYO0FBsx4Hqc8s+VFojFIVKc3ICMoz1MO1+FS98C9HqRVfhYx85cV0YeWN6fMm6a2Nhrrb7DsHL65qowsndQwNgUbK7A2q6ubVgWQKY3fILoccEyyITbdAt0M4HmdhtHcDBSmJAc3f6oPH9aFnPbOFao3cKaFtuHjaO1rTpfH29ptsf6d3f7UDosTdgGrilHwOANWPMG4fWwbckjEB1DomPLAnu5lXpzWjx8h3CjQLD90mM+cEi9jcWV11yYB8s7m72rF2H4JF9VVYH9mVzIDZ7gpc5y55Fnx835wmka2+6y1X4HNnHTQFIN9psqYvQoPG6IQJAMF0R5lJ6Y89IFjztR6E6J3hZMdYb2CM8/NdPD/+2x4fr7xwfz4+Pl59Jbv/vfxfBV5ffVPK7Pw==);lineShape=1;" vertex="1" parent="1">
          <mxGeometry x="314.7848154047406" y="180.7121500120171" width="163.69197915720883" height="66.70731710019811" as="geometry" />
        </mxCell>
        <mxCell id="wgFSj3JI18xGvirok_kf-9" value="" style="shape=stencil(lVjJUhtBDP0aX1XqvXUm5D+owgRXCKYMZPn7aOJqxy2Nn+E2HutNt7anZZNuXh/vXrabyK9vh/337a/d/dvjJn3ZxLh7ftwedm/6tEm3m3TzsD9svx3278/3x98vd4vk8vRj/3P5wu8jjqmHBRT5z/FFKhT535uvR/mn3fOZ/OnfM3kB8p1qnuUr5XhZPkQqwQKaAEClbk5oxPUyIAYqbAGxAEClWC0gA52TGjVZQEGAQsEDGgAIcbCAmi4DsprVWamCE3Kh3hwA+CHrlZxZWwCRFEjEAYAOJZMUB8gA0Ki7KyErVV4JDQYn1ERsrFRh+tRCJbp8A1aqqoNROo9gWQU0dldKwzPrgEjRBF/EgEyxzwAmQVdSm8zBF4U6iKXWh9VPgE4NsEYTqrPjoqYoMGtXFWcdYqbWASCRzI6LcbhyHaCenllDubYiQKMwXymcsnwd4Lg14PAWpjyHRijQD6JWmlM0ZMqAWyVbs8qgwnV5ZyScPtJt6DEMVZU35U1JB5hUhNIcR50SyH+Vr8ZnHTpZASaMUhifWC9vzJZXc6WA7yQzQGktIy+LjaOWBiVcAph81uxgpHUfPH0C9EFrF/0866Cxy0iHZh3RK84FrfmzI5R0OtJB+4z5BKXmDCqoAuqcPCXBTmYBGF4VChhg+oylPUM6KMXMxSQkShhQ5ispS6L87xRmvzHs9sRRGFNDcSFWgQJbBpUvhvEyJiTlK8PaajPMGKaLyWG0ixcBRoWCA09s8lS5dkIyucAUsNdkZsmOG1wFmBM0PVEX83lAtf2qJNh+aiUxbY9+AuZCsqGhlywoNHwx5CvVx9Xb5QhAGb6iy2m6+WDPoHbIIIF8V6J2gCe4vke0hCKA66y6wArnezfVioEOvjtUrdAc4PvPngevfbDDVTMUdILrodUMqDj4Lr0H2Fn5OUCTOqFZxk0aDdOGn2XU0BHo4Kel1iDb+3msVcjGfuJTAJoD/Ey5ANBc7KbWBQCCz8/FCwAN0m7yXpRGywA32zdMAn57sAAAV/r9hAIE6OA3IOppRgC3Y1EA4nu/xWm4BPk9UcMLDUetC40AR7tFl8oXkD5ukXYl3XQYDPb7aHLQWuJ8hkiPR+6eNfUodXgMFWddBkoEHtY7yRe4KnFjTME7AC+fYe1099HURmTk9M0ZrqucPTNfsX92Kz1s/+oWsSjrP7u4vS6vD/+3xA+7p6fjkvn8f7tV1lfHjXS6/Qs=);lineShape=1;" vertex="1" parent="1">
          <mxGeometry x="318.19525967645995" y="312.5243062077345" width="173.63211711434496" height="6.422470499715359" as="geometry" />
        </mxCell>
        <mxCell id="wgFSj3JI18xGvirok_kf-10" value="" style="shape=stencil(lVjZchoxEPwaXqckjc5nx/kPVxnHVBzjws719+kNJYxG0MDbsqhXc/ScK717f354W6+Ce//Ybb+vf28eP55X+mUVwub1eb3bfOBppfcrvXva7tbfdtufr4/7328Py8nl6cf21/KFP3ucJnFpQQX3d//GS3L/X3zdn3/ZvB6fj9LKcD6Kz+R8tt8vUgo9r3k436QyebJEI3/oN14LiKKVAsookc9S2Q1VvBsBTSLRIToJdQCE0D9xGqCSRicEuFEJoEg0gCqunQekIGkUSb144rdUpYQRALOG84CcREc/aJFEmFS8VMM8R6lR8D0dAVEcEakGiXEEFPEMkCWM1EhOnCcAEGE0Kwxd43lA89bTKXXPnAbAcaNZ4RkljmsqblQ6w9NMJBVtI0ClEvIBkA0AMcgBzQCqNEKNFiWMAJAlEj8AkEeli0ohMQ2AEamk/uY0IFkulUrJ1w426YDKM3ErogYArRigdjIfAIe0cA5Q/ZiLnXhmpWZ1AB0z8YN3iJcxV8LSjEw59rx1ADRpBJBKN8oRIBN+IyJNjALgScjFJmEMORiOOSJWCWNQw5eN2BU3ZLUAJXZNKt5YCVWMKV1tvgdAiQ5I30EtgNXdEmzdbTyCSrM1Czcw9tV0QgcaQc4GBMzK0vfC5gmQWVAjuxvAwffnRCrOAhrRASVoZitLrtWdiIdKlEZmzOMNR1F7mhvZ5r4lRkkEpWbTMQCFJPw0VQgAlHBjqcvN2pU1D4hRjRbAGiAA2sSNRLiRvJSJro0B8sQ+XkdzmERCBDFXu95FXhujRYKzNzji6ZsBUNobkXiBAMBGEK9BKBBqrMSrHHKlG8vihTqaDlS7slIjHowOF3qB7GyLdaHb+OzxruxnAIjmBt4xAVBHxy09GRMpdG5e2fUBYEbFz8RzDmB646Vz5YA898bE08sNo+Pg+wsh6kbyob9nhXrxtJkglAcQiDDNKIGNfrEXnKMpiNLb2XkXcxZTGn+b7iT6PgGfG8HN0gEztiMihWYHM0yjlZAveKs05t1MdPDJxgMmamYlPw/5qQ9Sp83as9bRUoANctPE7hudFEEksweBlUmenDr1C3uT+TxfzEws4osf11cq1+2VvG2T+NrqMD5etxVDrmvmOBuh1U5ufJGRbBZyVBgMH8UcD0zVYGPF0dUQaGJKOO8Gl+vTLeen7MDlWRxfb9BXne3JuTlV7ZTAvYVMk8y+kJPh1g3sxfN4+Fz3Pm1eXvbb4uP/7XoYr/arZb3/Bw==);lineShape=1;" vertex="1" parent="1">
          <mxGeometry x="477.4071354366006" y="184.59099192383223" width="12.03173966068698" height="133.57063851392445" as="geometry" />
        </mxCell>
        <mxCell id="wgFSj3JI18xGvirok_kf-11" value="" style="shape=stencil(nVnZUhwxDPyafVXZls9nkvwHVUDYCgEKyPX36cmWh7E89ELe9nCPLanVkjwHvXi+vXy8PgT3/PL08O361/Hq5fagnw4hHO9vr5+OL/h00M8Hvbh5eLr++vTw4/7q9P3xclm5fPr+8HN5wu8TLjZpuqCC+3P6RcXFfz98Oa2/O96P63MY1ldpma5vdVjvszj/NiA5CXEA4EQ+UYA5kTpxgQC8hPFIWsQpBWQ3AKKTUgkgiCsjIEpiRwqS2giokpiXVKIfAHhEJnFLOEAeAVmqI4AkZdwhe/GNAPC8MXAZj2A7FEuN4rrf9gFN/GhDiRKIlzK4NJK71P6IfYC35KteKok0AM2kQ5JIvARAGrnUsAMzuto4tCyZHAkZZ4z2Dn4lgVA8cKRrq9SvAZEb6dqiKMmg4CbAGppdgE/dxtWvuTtuH+C7qqyAQHUGJow2n6FGsnErKoWZ3BN+Q25P4ryGaM0eRIU8X6ds811D9h2kncgrwFGPBm95lHlpCKugrIAigSi3+v736qMgkRE1WSeVlYn7gNpLx8oKpTIZJ6JWPILQKCYrxMjnyOtbS3aHymrDKigrIEphIhbET6rHjIZO19GGgj0ZoFlNQuBYbShZdMw2sFsJNSrkwXBJe9XeB0SJo9GoFoFwCTptEghK60kcarEJhAKmBACJU7NDpsWkBatJrzV1H4AwTUdiwt2K7ZWWIsx2mEouvNSIjAFg6A2Z8czoJnWkN4QsEmqgNpkUBeEzA5ROtQ2XWD7ArUY1Mi9vCJxpEAFgO9SpKwYgMUCx7RsAjiVQmo6kPB9gorNu9QyA+mfi4KSyI0XxJh8aLVmwIYw7gHyMGvCS3QF+Y4BmtRUZ13iKuglQWcZF21vhSKyKoruzIoCkJXKPfChqvZRJ4JBxpdo4FJLTm/5xk6NsYsIWavgdJHDZ+CDAWSNQlFgrAPbZZiPTDCordTYdJetOiu8j26ay00KdbKibSmO9Q7MqsAg6G0SnyXUJPvFSVEumRdBJkcPs4MeK0nizgeFcp3nG87bSJDWSkKUcWu9abBwi8ZKHT0YbKm82fJZgBtHadWEfELpubaYHZQD05qZhqtRoX6cil2hlR3uvpr1v3K3a1X0zfbNOFyOTmY2RUmzUDU2y6XRDL0r7XFLbO9REI63N3rPUSlUjZlsVF/IxQNkhXyVSCUCeZCbzI5VpcmUtWdxr71llj9F2iZhdmQjElcyb9j4xo4NVjRzo1Q/msmr60NKT9s1Im1ZAaQ+HUdHIfay9ld0HTJcg8BuVymKPFHkVBWC+qGRFEWLcxkgrb74XwGj0mcvW5QBj4M5c5y5Gm4scel/8auH77qOx3ihr6PXlnVHznexv0cIQz1N749QqOXrzCwoY3eYRQ+ZUNevZ3R44qfkj66ex+Mx5Sh/832lvtWXnjD+bvQjg8cL6Yl4fUD78x/uPM+vx4fVly83x7u70rmb7v305g59OL3b0818=);lineShape=1;" vertex="1" parent="1">
          <mxGeometry x="373.6675203146183" y="150.87693636005577" width="33.792787932295596" height="69.88258923025444" as="geometry" />
        </mxCell>
        <mxCell id="wgFSj3JI18xGvirok_kf-12" value="" style="shape=stencil(fZbdcgIhDIWfZm8zQAg/17Z9j85U606tdqz9e/tmZ0c0uJ47xP0I5JwEBl59bp8/1kNwn6fj4W39M76ctgM/DCGM++36OJ50NPDjwKvN4bh+PR6+9i/z74/n6ctp9H74nlb4nbmSKZeJCu5vngmZ6jzzNAO7cX8FVKEsBuBKrgKg9oAE8gkCbLeUhEoEQKSUDZDLeWYRKIl8MEDRmHwfyBrBG6Amyu4+kDxxMoB3jhwgYu7TVAsVkFcWCs4CTBEoF4RctKeOxHIf8IXYpikHikAIf+MNUW94AGSSaoAoFIE3AlOyeWU+p2E5S9yfQZcQILVuQOwZdJNoS9Ls3wA5u2XZTIHECqeJ9kDpSaauRiNVcAY1QhdBzeLBli5WazpkSsBLV25uRaqWRyFawTQzRRIQYirJzq5atkBqLfouwqUxLBepthWb10vrWZY6UOAeyKCCtDV625mm9gmUC4Wc3VLJMMIE1BsA2FW9JraVlQB7n3c9oMKhCLEvIM1zBPZ25/umNQ1tVEC2G+fFCC8g398O2hNQuQlVu752DBfA+q0ptnqO5JFmeuIuo9DY7KjY71UxdJV4EntifPWorW++R/dC4t7V3DlIB5cHx2bc7eb3yvX//QNFp+bHDT/+Aw==);lineShape=1;" vertex="1" parent="1">
          <mxGeometry x="-106.53204068340324" y="90.87531245851915" width="4.672539772115442" height="4.665236216357698" as="geometry" />
        </mxCell>
        <mxCell id="wgFSj3JI18xGvirok_kf-21" value="lado(real)" style="text;html=1;align=center;verticalAlign=middle;resizable=0;points=[];autosize=1;strokeColor=none;fillColor=none;" vertex="1" parent="1">
          <mxGeometry x="370.01" y="248.43" width="70" height="30" as="geometry" />
        </mxCell>
        <mxCell id="wgFSj3JI18xGvirok_kf-22" value="area = l ** 2" style="rounded=0;whiteSpace=wrap;html=1;" vertex="1" parent="1">
          <mxGeometry x="325.01" y="380" width="160" height="80" as="geometry" />
        </mxCell>
        <mxCell id="wgFSj3JI18xGvirok_kf-23" value="perimetro = l * 4" style="whiteSpace=wrap;html=1;" vertex="1" parent="1">
          <mxGeometry x="325.01" y="490" width="160" height="80" as="geometry" />
        </mxCell>
        <mxCell id="wgFSj3JI18xGvirok_kf-25" value="" style="shape=stencil(lVjLchpBDPwarqrRvHV2nP9wlXFMxTEuTF5/H03I4pUG2vENFjUaSS21Zjfp5vXx7mW7ieH1eNh/3f7c3R8fN+nTJsbd8+P2sDvqp0263aSbh/1h++Ww//58f/r+cjcsx6dv+x/jH36dcCJU6kDF8Pv0JBOHvw8+n+yfds9r+0K1G/tOXIA9E2djz5lSvw7ojYoFxEBNACAR2xPFRrVdBzShakNOCXpojYIDaNYQoND4bZ3UTAKy2rLPaj4f8ipADKBk6hjQLKAGigwB/058BhQqEQYd2ABaoJogwBVu+ATUUECydWidOopBT5wsWSPlDAGtWEBbKvOfQUuCaa1CzQEajKEEEhs0h0ABkCnlpU5nFxX29Gjh6oNgULkYia2HLkubXwRw9VF3JTAgE0cKbsyExeflKeBjbhXWQbvFtkNTjyCCQMkGUOs79sFOsaoeob3Y89cEh1ik3qx9hANjGtuVSUB+hELz9gVwiKMfqgrIIAClRBAP6IB0LL7VNOQCUhp58pDgBBu0tuNCiwaLoJxxVSvUwbgYUuay1GAvc6csHiCo0wpl50FbAxyJ2c8XBXQQdF/ke2XfIPPCZB9RjihHHzEiUpiIV5d/uNaZk65F2JnF2WcKYONREk00FXD+M8VW9mj4tkmXmSqiEE+MYCiCuqDJ1JmoDZSkc8gR9c2cUxUcBDgPq1URIIk+DFDld2UQ6qjMMilIIgF10yUzWQ+6VyKiJu00t4wwBOTuRaF3KMu6ZAY78FT4E/Cgy4jXcXkP4HRNhR/pcuELwl8xILqlsC4+rwGylWaVflQ4BZRpgqFdRAFuOR8jALSoArrNUmnLtewyYBKe8QSwVX+uFpB1JUNHyp6tWfOG6tD8hpRUisCR6rTYaksltDoXv+ONLQjQe3SwLdxYOsCR9P5RbOH0FoauC20aGsToqspe/uOyeV+2j9RsxHin0t5yC0yA60gvC/Hf7DPoBB0nTjsDlCoJ/h6Mby6i2t+9PciPZM9qdQjyr/cg924hLJ162X4SNh02KF6hWJw9yr9MGhLhrFvd/M5NtlyJrzn42Nudd+31w9urpIfd09PpTdT6d//qSR+dXlul2z8=);lineShape=1;" vertex="1" parent="1">
          <mxGeometry x="386.42173770347426" y="314.4153810978778" width="23.359297597005934" height="69.79206227553664" as="geometry" />
        </mxCell>
        <mxCell id="wgFSj3JI18xGvirok_kf-26" value="" style="shape=stencil(lVbZctswDPwavWJIggf4nKb/kZk4taaunXGcHn9fqBrJARytp280vSviWBwDP7ztn153Qwpvl/Pp++7X+HzZD/xlSGk87nfn8aKngR8Hfng5nXffzqf34/P8+/VpQk6nH6ef0xd+zzymIBMphT/zhRQK5d/N1xl/GI8f8ErIwRBqp9C3CZypJEMoAgk5k1hCrlRkm1AqtWgIrEYCH9Ri7oYQhWLaJrRGNVuTqAOLWiexDySqYRsvmgXrQVg+8Dm+Um0OH/I2vgfK3eEjwmevikixAXxbNLNmgAKIZ18ls2qCStzGx6D+WdUJcYUPuADFSAlEtMsSkJXA1BFBLXYvVByjRIktQVUFnBah7F5QI4GsJVMV/0IDaRaNSfU+ZFQHcuN0JmZAqL4QNA8VVU71pSnUQFS1MqONaiHBlRksnqEDGiLvADGwR7tn9pWcQESle1WsSt9SUc8O31Cl1UUy107ECK8ZtvaoqHAli8W3JYFb+G6bewwwAWpQc6Jm3Lv+l6ApCDak6kMBddYKdVsFWXsF8KEyNdu9SoNDtkQfpWnIAtmxysimWTSsaIwHrwvt4REUjvYeN6L62gw+J2iDtE5r7guIUkxLpV+lcacYfB4mdaHEUbrBI7HqInLjMgwqNdtOe4VjPC6tYcUXuBlpK7HK7jpmwRS8GZq6B3RQzMGvdjqCGrQ/O9FViGc/9e/smvd3Uz1cF9uX8XCY9+KP//tFWK/mJZof/wI=);lineShape=1;" vertex="1" parent="1">
          <mxGeometry x="396.90206896435484" y="361.2387727013522" width="16.338376819573114" height="21.2501468454343" as="geometry" />
        </mxCell>
        <mxCell id="wgFSj3JI18xGvirok_kf-27" value="" style="shape=stencil(lVfLctswDPwaXTEkwec5Tf8jM3FqTV0747ht8veFqpFjgPI6vskyV8QC2CU48MPb9ul1MwT3djoefm7+js+n7cDfhhDG/XZzHE/yNPDjwA8vh+Pmx/Hwe/88/359mlZOT78Of6YvvM847xw5N8GC+5hfJar8/8X3GbAb9xeAVqk0tT4E8h4CWlEADlQyADTyrACRiRsEhKQpRHIopEasATlSRqQbJQ0okVLBIVUFqEK6AkC2aW1MLV4HlEwuKsBFKVcRKdlCyBYRsOZMrSOR03VAKDYmiTKG6wBfKGrWxZEHHDzVrCstlQHrBeA1IHpYB+l+rzlL83lAIdSl+8+ARA4BGmVdhlgogPaeADpJ8fzmakhGD34p/TXSQdctMVWUJd8B5BOglXymVC0A7eClTMkCkGuUFQ+ogDNTypYyIwbkupwGQKCz1Sg+CL7vKJk2yovnrJeAkjHJSAz4Srp1/FG0jKTpur72i1jXAZLvZgFQy9LFnTYj6rqzI15yQOov1oWnJAFTFalx6KoAThIBGEOSMleszarrls5aWgdke1ZNjYpIB+svkxJAJ/lqLW+SGgJwFxIWc6XcbRDABtUa3o31kiNXuqQCQBS16TpnvxjUOqAbAHKhDBojV3K6MUpbXHndv6Rsurmbg4IuycpHTmfkSHIWFxMSHmIEYAaGG2NSKV0d8CAmAG88A496AmCdpRvDpACMT94YV4U0a9/D87Csty4GRx4JyMiToUtK2wSdIg/nwuqXme5zPZoKq5iqjt9Bi6zSRWzWw++Lctod61sgviee1h07mG8ry3T2tXzK9cXoEter9acaHoHvvYB9ASAPn/e9l3G3m6+Ll//b+6G8mu+W/PgP);lineShape=1;" vertex="1" parent="1">
          <mxGeometry x="378.3781972076481" y="459.4234135565455" width="16.812916897881223" height="33.907961788143666" as="geometry" />
        </mxCell>
        <mxCell id="wgFSj3JI18xGvirok_kf-28" value="" style="shape=stencil(lVbLbhsxDPyavRISKVHSOU3/I0Cc2qhrB477+vvSXezWpONBc1uvOSuSM0Nxkoe37dPrZuL0dj4dv25+7p7P20k+Tcy7w3Zz2p3taZLHSR5ejqfNl9Px++F5/v36dIm8PH07/rh84deMy0qpXFCcfs9vKpOmv28+z4D97nAF4ErCDqCZmt4HiJIMD+jUy31AGcQ+JS3UQUp1UPUnVKEs9wEtUfcAERogpabUuwPkTJoBoJOqr4FavR/fMxVx8UwDNLUXGsnFJ1IG8Z1aDvEJtHQwleYLpgzyH5Waj7eGovhO7OM7ZdDPMWL+WYhRAWMhdAUYJQ1mNAIDVgIC6CLKFdCpAg6GLBJYe5SpoxPSouIrmSpSkRLf6Fo7AJjXS0wJ6a6Z1XosWhGgUfHEcaGMrSbeOUZcRyco1cC0kICiLaXheVjF+H6TUiyhUELx1nPPQiZG3mzR++ZN5AX7XA3xFcmoUPMNYurImy02VOGNYFaLjK3T7F1ATuvwWREKrwQ7ogSvMTEQxYcB3YTtAbXgic0kXhXaoDn1Rtg2lAvQRWmUwqWT8NTm9YMLwrhE7rw4xUuv2yAfIKcoPXMfGsN2jXgpNYFEZ0reOnZVDyCltJB6TQL4/o3wbLXIwDsp9kcTNVBvjqtLNXMDUXBcE0x1aK8oyw1zta0J6I8u2a7xCS5rI0rOlrEBZqk5vUo8ICHvS1y9DDCACz68oP4HwB7+7cMvu/1+Xqev/4/7s72ad295/AM=);lineShape=1;" vertex="1" parent="1">
          <mxGeometry x="389.37695669345203" y="475.5264119928279" width="21.919165843305564" height="15.331897132907443" as="geometry" />
        </mxCell>
        <mxCell id="wgFSj3JI18xGvirok_kf-34" value="" style="shape=stencil(lZvbkhw1DIafZm9dtny+DvAeVJGQLUJChXB6e9Qsnu2WPN8kd5uJ1D7J0q9f8lN+8/v7H397+yTx9y+fP/3y9q/nn768f8rfPYk8f3z/9vPzF/3rKX//lN+8+/T57c+fP/3x8aeXf//24yF5/PXrpz+PL/z9opdKSOXQkvjPyy8xpPTfDz+8yH94/niWr2EOIx87yPdQp5WPID+DOHm5Ly8pJLHzh/lI9uutFeRryOkin0IsIK/rzUYevz9Dbxd5CbHdl88pzGLk/x9wL1/W9r3KT9ifrOdbL/I5ZDiv3EMfRh7nM0Nx8uO+fHHnm3E/i4SerTzYcymhJCNfaD7Nz6fAeZURop1Pmfflq5r7tPOH86oSxH6/wf5UXa+df4fzqi20ZuQH7Gcd3n4G7GdLfv4T5tN0O+x8Jux/q2u6J3maTw/T7j/dlx69PUzY/y4hWfufsJ+9LHd82k/wP72u/z6dL82nh2zX2+j7I7Ru7RP884ih2f0RsP+RbHxRhw3+Z9yGf/Vvg75f1na8yndY76jWHlQe7GH00Kw9Z9j/Me3+l5DB/mey9lNDg/VOWce55Dv6t5mt/5zob2cJzcRHwQA8q12wQooCJzDV45qIOvAKqMK4KuiZNbhjs9sYIA2DhirMeD3kuNz8XmGsQ70psNtShW5G6GHQOcwFw252lNCwVSFfDalU9FyqYCxJY1Ui05vW9WrwSbRLc7n+m4IuGpzLoXBdtIYT8hYp3tDnTaMinjuGuPqLNhEgTwfoOiM6VShGoWDIOY76eoPUiZPPVmNq1zWoVxa2vnQdYbBX1QthR6gI6/SOmm0dA3HR4QWu1qeeENdQg1xHmBwJ1ZOl6znomJSqqGvtV/s+toFMI4ZhRhjL8+yDw7A3SBUqRcOb3zopZAqH1Z70ocDxdkSrIKQg1t8f1kWLjgsQnRQoBezTuu/DPxOG6e4cbr/sFZpNAlWhw7bqDbZRtCPM7nkFzbMt0QjJ4qrXO3gPqMbiFGBb23C2pApw0q25g+uYu6jrFbfoCgfXbrnfSYG8hoaD4RVgl1q08OpQgClpvlO/TaHbQH0ogPHVuhsBfOsRZZ1pkNfQHLK5ESiJr8mSNIcCZcFzcw5kGpo2Zz8lzsutq3wwJfV8fkpwH4om7tGdA60hWWj8CjTvcSPdmUYmMkj9nDvpTCM0m02qgsC2Zs1G3JRQQXZroCklC40PBWKo4oJTX3njZOw8H0xJ0X9x29rhHDQHi840CC+9kmTnkEUKYmm8IyjCOUi0vM0RdsHzJZcPHIEd7kPqDv4MvHGpBTEKE/OBVKy7P+H3vUZem3IagtLvdEuSTqBv0JyihfcKAylHSc5cx2BovIz5BKWJYR+LXzthdcpFh40/fTA0scika9imIG1NW/MfZAytl9QEi0BACcPkfB3xpCtwtLIorL1/sZe/CTphsYRSi5jvpU2SSxA9Wg9cmYGK1sVrtCaLdhmxpvWUJ0VLaGtwb/h9c+s1thOMjBZ2Fna+Ll1QeUpI0jrNm3xDRjit6336foIL7wj58iDaWEK7cMom1gGV+UDesGF6voQGnT2r/dB5ib3vap/k38RmnDUj45ksoFD5judlcjWVp1jsknKVZ3subj7kb11GofuT0J5NpK8J7U3lzXo5RkbrD9XeJn7fwN6jpAX2HO15qf1jCHb+oeP3ky1AHPKw/7IYwZM8oXCxdJyulzjFb5XPjkZNmMMW+33N7wTjaTb20x/ImwJHnZjWNIuYNMkm++l2/hp/M8gPe19aW0DzHv4x85nLA9/DVwbPJGRaFMAZAzpqcqxgWOmDcKIeiWRDwIgMQp0PHQUxmSoMR7dS+qBA2uzSTHhqitUtl5MxbKRb3eoEpIm10/RhOuRNgSwNe3CqkGkEnwIJbusmyRJMdjdpnHDw9omi4O3cpKIPwrFPdgXv2yadFixNbRL2jITuhhLIq+TxtaRDxmR3Q2vk5Xa+ljh5oOCpmYxhf0P+ZM5rPL2ku0StMZ7AyogUNhQZX9ENCSerUvq1NJ9gu8iGSOTK1IaqFGy42JChgh0pG7pVsLa7IXQFM5ANZcwHtyGl+cZtaG8GtRtiPSNq21D3vOhNcYDPYVN+YNPYFDiEy0C+hMKeb1OkYS5kUwYSTHY2hSZhNseXsgTpkE2xjLspNuU4blHcFPwEizSbkqJwk40vWgoWjzdlUU7ajsKrG4FYIMVflkdM6CpndEggrR6RvULajICdOWKR9JjcEZLtwY2+ksu9guPuBncfzmptaSREZEfJ/urIHvVGNNu50BlKz+5G0IwXfOtrweREWFLB76h/XL1Ge9C50C1e0hSOvMYxJcNhNKx9qYLpjagc43x/R5kI4Y5zMGl95ZaqtrD8TSEh76e2ZNKyzIWm6ZjpnBEZT+c1FPoKLdp5b0XjFIGmI7PlBuruXVGTx0nkc5DV2LAUUn/UBWP4J00FCYaqIzPIOCVEAmPalkrNsCkCqRcyPaQTGRZ13sVkx9hK4XtIBwcH16M6cEt9Dyx3m/geW2acfQ9vXzD8HgQw8bav3qq9vOtB5rDge5w7WpDvoW5YPPU92g3jmu8Bb8hw+R7zB/Kuh70xsnU98g0bBH0Pfkf073v8O/oI/4ago/37NwodQ6x/A9GRe/JvLDo6Rf+GQ+Vh//0bkQfflwUITvOnxDw5hhHRaXYlYr5fuVuqrWEan939besR117e4cDGVEdyJSlmnKbFaBV7FI/jue5/wfXq58SUCLhil20eWJj1S5YA4wh5vIFzb26IcHZv7B5UyNwbPsY1/o1gXhzJPfLYIi2sqCWXnmXkOFXevUkixl/lq30zRxRQyrZkIYiOk2sZEH5D6eTTo/008+HWZ7/eiKSa309+E+nPK6L9e3uI6B+++U3qQ3n94/UB7LvnDx9e3s+e/98+mNWfXh7b5u//BQ==);lineShape=1;" vertex="1" parent="1">
          <mxGeometry x="289.3421880540782" y="636.8978475708805" width="219.60212751205017" height="89.99314033159521" as="geometry" />
        </mxCell>
        <mxCell id="wgFSj3JI18xGvirok_kf-35" value="" style="shape=stencil(lVdJbhtBDHzNXAmy2evZcf5hwHIkRJEMWc7y+1ARejxNaSrwTUvV9JAsstiTPrxtn143U+C38+n4ffNr93zeTvplCmF32G5Ou7N9mvRx0oeX42nz7XR8Pzxfv78+XZCXTz+OPy9P+H3ltUY5X1iB/1x/SVTLvx++XvH73WGJz1RkwItQCoAgpOMBgUlknVBjf95MqBTSOqHY3yNBE8UKCEIlDoQYKABCTtTaSKgkGRCEMo9ZDTCtKVOrI6HAoJPFML5SthMAIWZKY+FypaaAwJR0IBRLA6i0ZpKRUJkqyJKaNMYYqokP1CFkymMMjSmDoGUOcSYUiiAGsSylkVCpgiyJUhq1ZB1V0AlMYZSGMBMzEFPPyeKEHEFaqUUfQgbak/7vIkcBNCiTju3WUq/jCp4dXmENTDQOLxTB8wPlEV9bf8L91qEw5qdWSiA/leJYsFqgSm0glnJDAAmV1Ou/eCNFJxQqyYeckEqbn3iWUwEEK4InaC/jGsGrKEFVS/PjxawFTQsLOjqCVQalNfohbI2DhGSFU/WEhoyEWvZ4NCxiD3CBZxByuHmf0suy0jk5+ZSiorHXXYvEIF6m6EQRSNCs636xGNcK3v+z+Oo90HYHNIlsWOuNQzHqm9nmFx6ICFYy57KF+5mrluZ8PPUN6/50t3E3xpAabAOt/oSkMEsx+QUsFlJwQmLfmXGeyWvbjtsJtZAgC7ThMypbGZ6QZ4ucl0iFaS25J3G25dzn/n3tCVUnPqoIH70tKwlyneQX7YDxua9/cwDdp+/jq7dxhluFtSKLwwcQrxlMjQ6P/MD8pbDHo4uI7fjF4ZGqbXRydvgGZm+bLfgjnwU0so1ydYrrN6s1vNMPFuhiS5y7DAru0ze7/+Ltw8c18mW3319vocv//bXTfrpeWfXxLw==);lineShape=1;" vertex="1" parent="1">
          <mxGeometry x="293.0896568662306" y="637.1889103716126" width="28.72124352716355" height="48.92463400337283" as="geometry" />
        </mxCell>
        <mxCell id="wgFSj3JI18xGvirok_kf-36" value="" style="shape=stencil(7VnLchw3DPyavaIIgs+z4/yHqyxHqiiSS5aT+O/dky1OhuBsy7nl4Ns+2EMSaDQec7F3X+4/fL67xPDl9eX597u/Hj6+3l/sl0uMD0/3dy8Pr/h0sfcXe/fp+eXut5fnr08fr98/f9hWbp/+eP5ze8LfV1zJUtKGiuHb9ReV1v754dfr+seHp+P6JrFN64uo3l5fg4Q4re/SM11f8nyeJCFQQJ430CZq/ER1AsQoFsmVuySbAUVqojbKM8BUjBipVElhBmSp5A7wWu8zAGYtBJAkzYAEsxI/lCh9NmuCWRlAJc5mzVESAeQueWZSLmPPc0CVNpsVexZCDTzPc7WIsSMlqTOg4ladAExsPlLFnsQPWaXO9G7Ygd0heGo0To20sLX1EVLngCY2U6ObKPFDMimzlfpO+FOAFQkzQEOgQR1Nos5bVFEScoj54i6RxCoB4O8yA5TyW8Nw7G7XKoXF6GD/vj4NKTy3kj9Qg7KRG+wW3KmXaTSASMmvZxcOQxT39dAQImKLcFcbPjk36HIeo/aJUtx54mD6OU1HFjjEcieZLUvrfn0h9q8nWpEJRbtUXdaT8yj+zh5QmUGXoIGFlMeAU2AAqMvyAjCaOhXFwUzqyoMAXjC3Qxmqfx41uuzQpRGaWpXg4ixKI5Kd4qDNUYGZxi9+aFAnlv7jeN4OKOOQ59Qz6S4pBFqF4W9P1kIFGAdweQrUiGyHtpBPaVLoYXGcjsLsHBB9JkQl1xgg+ZwAAKs9exnxdTiSESsh76VFAzoDoObp3qxMZA6J8hBy1K7I9kvIJX4JL6xIDESYYKZePYAJExzh6Ar20R1Wrd9LuVtkcsmz8rYEdLXlDswRCIhWPCCwHfJipUQrPQCaiyAurjiSDwiECLtDXaihtJFB5ZiqB7A7oIZy3eQWcgwAJVsAjXGpnKR1JVqJwrEvMVoYl/qI+aNZeVD3pfKJrBLoC5cSrbgBCMkDOt/hPwJsNKg7oNG8u8WDS0F7AXsrBTmtBB1ZRoER60y+Hmgjs44ycKtI4iHnZYdES7i0kG/jL+ESio02UwPSxoYTFkZzd+jeMuuU0tIfFpof0Cm5Pr3xhKLRD1i2aoKVM4vao1Qm7P7ZmPxsTP73jQl28KxIdFCq1Rf1UFQWNlsczH5uSiU47vXEoTFheSc2P/lsewF7q7lyoYwEz6YqFj01Oh9KGBznxjA8eLb2zV2609xpzY/oYCUlXLLuswL0jsVb0vG8H6yH0VEmFw9hZNObEzc3+Xxjh+SLz8JbH2Q2R75teMpErPkKYxtt8rmku0OqtKzC8+K8Q+IxnaMvSeBKNnbPyesS6BjZfDj7GSDyNRu756UJ2MaCTOuLr7iRXpTPuPtsVt09c2uKrvMOUFvm6bzkcw3U07i0T7jcquapxPPt5mdnIyoZ2/PdjaUxCy3R9sZLgORf9/Bo3spOdetZ/bJ5LLj1bBael4aeD9shDdr8elbfqZ+rBP5myPzELVB/FfDRn5/lQWihs48Oyf/BPuGNV55vrseHf9+vfnp4fLy+nj3+79/H4qfru1x7/x0=);lineShape=1;" vertex="1" parent="1">
          <mxGeometry x="375.0262351452757" y="570.2298458900702" width="30.626553317145863" height="80.260022724274" as="geometry" />
        </mxCell>
        <mxCell id="wgFSj3JI18xGvirok_kf-37" value="&#39;A área do quadrado é &#39;, area" style="text;html=1;align=center;verticalAlign=middle;resizable=0;points=[];autosize=1;strokeColor=none;fillColor=none;" vertex="1" parent="1">
          <mxGeometry x="307" y="656.11" width="180" height="30" as="geometry" />
        </mxCell>
        <mxCell id="wgFSj3JI18xGvirok_kf-38" value="&lt;font style=&quot;font-size: 11px;&quot;&gt;&#39;O perímetro do quadrado é&#39;, perimetro&lt;/font&gt;" style="text;html=1;align=center;verticalAlign=middle;resizable=0;points=[];autosize=1;strokeColor=none;fillColor=none;" vertex="1" parent="1">
          <mxGeometry x="300.07" y="678" width="210" height="30" as="geometry" />
        </mxCell>
        <mxCell id="wgFSj3JI18xGvirok_kf-39" value="" style="shape=stencil(lVfbctpADP0av2ok7f05Tf8jMyGFKYUMIb38fUVdQ1bGJ/BmzDnW6nakHcLD2/rpdTUovx0P+++rX5vn43oIXwbVzW69OmyO9jSExyE8vOwPq2+H/fvuefz9+nRCnp5+7H+evvB75AkzMZ9oyn/GV4FE/r34OhK2m90HQovUYocXoczLhJqp1o6gQg0RhFLuCY0UEEqkGHoXCjxSzt5CzFTSMiE1kt5CSpQjIAjFPqo5Ug7LhGg+SEcogRhYCHak1BEqk1ZASMS9BctMAQStpK0jtEKxAYJlWntCpaiAEIn7sDbzClkwF9UTCoiSJCqlr9ZLwV9nCEnxJhqoDXO6eXwCPgQKxQep5WU8U2seLyCos362rP33aAGfHD7DblPfbC1RAOdJUyue8dYJSGAoV48XEH+JpMETYIbrVPY3WjCXa7rHBasJ1ntipGUqgVuTYI3lCDjLZiHOyg6VkeWNZ3WH6tRUPbmw4kaQMtMX3GmilHvCZ81sCpa8BSQXs0HyiR7JNARuFDyeaQtW1DneJtdd38f4Rtzja5qG9VKvueFfGgU0Q2SaemeCkuCh43otB6ogxSH7sZbiNIau51ip9EeKCe4jsXkFM5sZ+JCyL2zzKqB9RH0dWdzQEpab3xaEYXPaMlF7gk4CsrRSuQ1Jpg9cx88UT0gR/iw+E56pALztNi5pDAW1Birs8AxSdlpSs8eDjDX2VYe/39RPcTs/GoJpGjAXfAZCYTri4iNQuEzX1OerYLw7v9UP2rvuvVbcQLCHyy3mZbPdjpegj//7W4+9Gm9M4fEv);lineShape=1;" vertex="1" parent="1">
          <mxGeometry x="388.65981089735806" y="722.2614617202842" width="11.668236271465503" height="55.23541127081262" as="geometry" />
        </mxCell>
        <mxCell id="wgFSj3JI18xGvirok_kf-40" value="" style="shape=stencil(lVrJch03DPwaXVkkQHA5O85/uMpypIpiuWRl+/uAUTh6bL7pF9+0gDPE1mgAc6cfvj98+nZ/J/H768vzr/d/Pn5+fbjTn+5EHr8+3L88vvpPd/rxTj98eX65/+Xl+fevn99+//ZpSI6ffnv+Yzzhr7dzNYWeximJf7/9pQWL//7h5zf5p8evF/KlB7VFvoasRL6EGhf5EpoQ+RySgXypRD6FWEC+tnN5q0EF7h8TkTe8Tw2JyUtom3wn8jFklFdiz1xDryBv5D7ZgjaQb+z5EspqnxZSOZfXHoqB/H8KXZcv+/PZfVRD6Yu8ByC7TwxdF/kUQyQB5O8HA/mBTjQQm/8+DggNCVFMgaQ0ZyShzslmlF89kHroeT1QqddSCwI6dJpmqQRbzSoeKAQnUg519fOwWyYHPHFWP7inC0GKlEJa3+CxYuRAD3l9gXrqEKhoEximfE5UZQee1aaee5lobKGuJs09RHKfjJHtWGMslYOsUeRY1sh9dGp3IGkKjcSEBl2fX7g9dUM6paXGKwEgV6dQWiYwHMiiNJEdqFZ9WwmZ5UAKAgda6ERhzwEI6e6P4HkMWNQ1ROIyt5GtOvc86/MZPEI560aN6ngNXvADlbzBC4isBaqXEMkbcrtygFnJPLAFDyhLtI6ZM65E3lAMU8eVZqFRI+Kp+4GV5ZonS7nwdCJmrQ3rpscSu1JzYrfq0BwACTy2LVo9HxrLn4pKe8Ix7uUXkNUPLQYjb+gRrVQrrf5dELPd0IlgzMivNafdlZVEqx+AWHLUE/aGjMW8KC0jHmq66jDil11pKyRWKBCP/NoqD0N6P2Br8GWlKToOrITEa21jShcsDioUW0cGAyFpk3GcWSmuMCNHwJ95GsJb4jT0WbTK6rhUKBf28iErenvFoCm6Ke2siVIYr7DAJNN8xPUDEdvBHiqBVoclsGqjNqq21VDaflUJurU7rN10zphBXogLPHljB3lGnL09rQXlWXsq2B7VWbyuy0ckkQ54JG+8nS0K8p3Yxxx70L/GSqdOSnoRD+w+MgH94vnsPrI/nxEeS6HiuEJYu+9FEv3L2ushD/DO7Z9QX7t1nwbQO1n0mX0AhJTml8tXlGd80P0LTEe5vjph/F2eAdDgatAU0XxxeatgTzqeyROe3uVZrdzlK8VD2wi24xXJ36EvUBzac5luPJBWAFMsGX3Si9N4EJRnzxe8/8HZTuNZQF/G6Ea+oP0L4/pX8rFwfIB8twl4p3gCzIbOQdw+CeO/c3tCPCufCfyofEWymGi8jfoClIPi/6hfKF9Y/c2TPb/LM7zy+gv9aKLjQK/vkC/e5pD4qQc/OkjcJGln/MQSyDN8c/6DRHdOpc66MriP0nrtTRnM3RwPb/Rk0G3Q+ustWUN8y4yny6RHF9NSY81J3kix0t7beToMuJPRrrJX3EikNknX9QN9jmsvOgFl7c/RHR1Oi7QKpBixrVTjjau/YvVbvtGHdgSKXGlk+wGFSIp0kOMH4gqNXtwye0NDbmmNjt79ALQzY+LIrFSx+hWPDd64gtKjQeDRB+FadY6NT+cBQNgrj2+ZRvz/QxCADO/q2ArN20pdMclRgfmhGYL8aGUJCjRB1HOtWI7WLZYcFzrHYVjruStZUtc46+RxoFGk9MiB8e8IeEZd+hxIXBwoN7jvqvQFLpyOQg1fwaYgY9gq2wFi1zHO3bRmBFI3JBtAQnQYWBrREXS11GYFPw5UyvHS0UJcDozZLipuwXTsRk42CbCw64mOijJGd+NLTdmGJg47ROO4Fek0t9gn8kDix9iU6Lv52EGPlYY4e/SLGSgb8W87bqehrAvZ9DVe2xI+f4w5iL+2Jsf4jlhxaJULtX/GTZTnaWZdDg41tPF1wzYUyHOHch2vMcOk811sRBY/rkgcnGTa+zjAd4eewziYbDQlxyh124knkmP+vAxMVSgFk7htWCj2ehR1yHrqBDchAGPhz684iuU+cKSGUUWmrakqFkDHVbYeLricVP6lR8eKLJS2eI7o1qoRe2ZDGp/4YrLuramQ+zgmQCsVQ+ejTxi9RbrnMUMUjbT1soooFPlopuPmNlKQdkzuqC8jK97qy/Z8NgrfWv1IW2tn6tgI0lFO3UipzIQ4k+8R5Fl+eU0ErqXTwGfy+L3JhPkz+QIdHd1q1210aHR0PuRxNMZ6pyG/6ntA8Jm84eqCbrQVR1f1ln0ijv7p87fRVaOjNJeHfG88fn7wy8nb8v7D+2eaXx6fnt6+8rz8P37W6X96+yRUP/4D);lineShape=1;" vertex="1" parent="1">
          <mxGeometry x="316.5508188882268" y="773.4386369511155" width="138.24449479953591" height="71.64616623616621" as="geometry" />
        </mxCell>
        <mxCell id="wgFSj3JI18xGvirok_kf-41" value="" style="shape=stencil(lVdJcttADHwNr6iZwaxnx/mHqyxHrCiSS1a23wcMM7QAkp3yjaK6OQS6sXDgh7fj0+thCO7tdr18Pfwcn2/HgT8NIYzn4+E63uRq4MeBH14u18OX6+X7+Xn+/fo0Iaerb5cf0xN+zbxWKbmJFdzvf3eIy98bn2f8aTzf4Wuk7BU+OEp1n1DYHsCZYtgn5Eo1KkJMVMEr5UgtKEJKlBMgBIqsCDmRa4DgyesYJKqS9wmpUSmKUD1VBif0CBcVKnnwRoFK0vhMHPfxrqd8wUcYsSOvNWieMlDZWwkqtlGi1DS+EKPnu57vhZCogYC9ZLRaQnAgo0zMKwLwqRRK1JVQMzm/T+BoK0GCjkAEruSyzWoCMbDYzsiMbScE1jGILwIirI0q1QwqgUMvxTtnB6B0KN2YC0GCBmkVrxZN8M6RA2nykXh1RAFSS49cVSeqBu7WXPAFOsNRq1YF1PGW8Ba8dDRYnd6o7PqdTXwkb2qnUANGrdSMsaUbgQYsApRVcTJw0RRBswQPfCouisUSMkip+LQlG0NDlfBRgm+rV8pwTIkMTp9QAlVUCdn6IjP06SScmZzcx/t20ExeEyLDuSMtjHXQ0yOA0lGGudkvmCrIUhId9Ak+9U6+PWqTPYG7knv7iIk59HawvfCIV7Vsvq8b2/jYRe1414fjNr7a93d9O9kuTu5z7x2PuuM0lNjgUcOWEcPZ4NFklt5mRvmyPGzji91duLenbXyjoPMTYZndTYulbOAMnIaFDqDAIfvRFfv/eLl43+dfxtNp/hy4/9/u/3Jr/nbgxz8=);lineShape=1;" vertex="1" parent="1">
          <mxGeometry x="350.73864914741534" y="798.5077822076819" width="11.752491570689926" height="31.417957594422205" as="geometry" />
        </mxCell>
        <mxCell id="wgFSj3JI18xGvirok_kf-42" value="" style="shape=stencil(lVbLctswDPwaXXcIggTJc5r+R2bi1Jq6dsZx+vj7glWUGoyMTm8UhSWwiwc58d3L/uF5N8Xwcjmfvu5+zI+X/cSfphjn4353ni+6mvh+4run03n35Xx6PT4u388P3bKvvp2+9xN+LjiqyNRRMfxadgJC/bPxebE/zMcre24oYuwzomNfM8Serw7eTtgENEJIFpDBwQFkZAtgRioOoEIsICUkvg2goJoES7ogkOOiITUDkIbmkSigYgCVfJkY0eZBhePkJKKCbEjqUzxAHDlc6bCJKIKSrYu60toGEPJAIrokpIwxVQY5qZOEZnPdfTocFBCHVGu5OIkQrU621ZTRPEBF/3ddrwnF4VDiqFIUUHYABW3oOQI55aoiipVVm9TzUBt48MBgB9ASqFrSAclviGJDSmHt81stNxRfjijRBVTbcppKL9O9mG2mS/WngObVqqRNmLxhqUPCqtT8Wqo6uGwtKStxPGjE8gEQHVk7gP8HwBnJki7NnWSkHWfzoAUv7jhGGnr6fWe741YN3xMtq8tN+4RgKUsAO/aEahlnRnAYf4hf75+3Yr9hP9w+LGuEN+yHKz0W944mNNs51Nz40zjASBXw5tE4UsU9XvNb7PnRpasFNMxH/5rqT5442nvy/POJpIu/76un+XBYnmfX/8f3mG4tbzm+/w0=);lineShape=1;" vertex="1" parent="1">
          <mxGeometry x="347.95379653596547" y="812.9665666081846" width="12.481387829305277" height="5.593835837762526" as="geometry" />
        </mxCell>
        <mxCell id="wgFSj3JI18xGvirok_kf-43" value="" style="shape=stencil(rVbbbtswDP0avxIiKVHScy//EaDpYixNijTd5e9HzxMW0Ta7AX1THB6J5OE50sB3b4fd636g8Ha9nL/uv49P18PA9wPReDrsL+NVVwM/DHz3fL7sv1zO76en+ffrboqcVi/nb9MOP2YchgAhTDAKP/98Qsj195fHGXEcTzeIUgFTB4gEzNuAXNt+DZADEDoABO5TqghI2wDJUAwguilJgBp7QIaQtgEJIUoPqK1vq4AYWgI3gCrbACqQyQJK3AagFm1SKiBODQVK7uMFkkMDQcY+nkGcChaDVLUHxSkAQs9BUQ4clpNtUOHG4vr+DKkf1KIsOg0ithXr6BanQ5wA2QK8yY4CQhYgjtiSQC22BvKkoCmh7ZI4ANUimhPEHSNVp/RtrcGVglRgM6jcBL4OUOIMQNyiU4RiUiou0zECGv2rSTmzzWRTujHO9WFSE1voGZ0j1HZTb5PqSexUHSEuTE+yp89o9tcTnQrUpM1glDbunxKP1Cy3AcRnDZWjnjV1Wc8itUWpFwPqtDstIp2z3iMzJCeegzWA5O6vhmE8mwG9W4Stmn3Kpmuq50BJdxqk9+Ai/gMpJxtPTnwuQEY2rsWr9Zg7hCA68ZWstURXMnVhp+p1Tv4q2WTuzGYc6xP636+pf0Ho4u/z7Xk8HufX3+3/9rmnn+anIj/8Ag==);lineShape=1;" vertex="1" parent="1">
          <mxGeometry x="373.46634889060533" y="810.0183810551016" width="4.712426357098593" height="16.231145087285086" as="geometry" />
        </mxCell>
        <mxCell id="wgFSj3JI18xGvirok_kf-44" value="" style="shape=stencil(7VjLbhsxDPwaXwm9JZ7T9D8CxGmMunbgJH38fSlstF1y1xPkGKA3e1cjieRwSO4u3jw/3j3td8E9v1zO3/e/Dvcvj7v4ZRfC4fS4vxxe5Ncu3u7izcP5sv92Ob+e7qf/T3d9Zf/14/yz7/B7wnlP0XVUcH+mJyEST0++ToDj4bQEBPJBAZKjVAEgUkgKkCvlAgGNFaBkKhkDsgY0igwBSV+penIJGl29BsgWEQA8laYBGQPEidqttRADAJPTcauVWri+Xnxu1jdyIGyFnLf7FxC1RGV1/+Kvrxf/mf0TMYhZoKRjXAO1BhxKVZOounHilfVvJJ45VKkC/wfKhtUOBjhSLWp9lDwD8crEmkBe4gX50PT6QgFs72W95oMbhNo2lylrf/IgyLa5wl5tb48gSLEUh7uXDgIn5DBezyc0SoBBmYfszC4VkgNAZ4zRFaooxSp566MK9m/J6lbAF2pMXgNSoghuxCuWFk8ehJmFZCbNCqQ181DaAWiOAspL56xyiR+QW3lFVfEDOkKMaJoZLGqDABI47SYuUFw4WXbLJT1gdw+EtmHhh22EvA72iAju1ESvtIKJWRGUzVZsIMQsDwLR+Wr4PV/yGiBrNrUMU1ReG6Obh14SG4Lha8VXarZ9kUrOoK7xujCHkYXXQm10SZqLisiUKSZ7AmRfXdXCDCMtzDFuleKPtLWnnMlq6eIQW5nYRLpio3mUp5lL77i12gIqfmsocNkWFNGFjKQsUjQAxnFw1FaAijKuDRlaXMmjnC7jxgujIwjcxwFu1efh3rmuTigRdgKSX17LTBJxBZ2nsD9p8sW5/d5uVWU/nUDJjyfbnUAbZXZu3nCzmoMtvCWQA4GLbFuB4mCl7v2bsaFCXZKG0pl+KZNHDa6kqK4PfdJDI4koqWlZK8w4ny29c6SCZsn/k95bSn36SQ/c57NPep6CEQseXzQ217sx182ZjCefVT8ssx+y19nEFw+jxtDZDr3fEH2wsWkvkycaY/yI5mKsQsoVbbMtupHB/mmk07w+jVbgyuRs+CDrM8wXo+1+7nO3S6bls9y/wfzNmg8irBGpotDXzAqMZ3lvM7hzHAn1hz/6vQ+QH/++MT4cjsfpE+Xyvf0mKY+m75nx9i8=);lineShape=1;" vertex="1" parent="1">
          <mxGeometry x="383.07109013736635" y="808.2658690477956" width="37.677756956531994" height="20.62813709151169" as="geometry" />
        </mxCell>
        <mxCell id="wgFSj3JI18xGvirok_kf-45" value="" style="shape=stencil(lVbLbhsxDPyavRIiKepxTtP/CBCnNurageP08ffldqHEkteD+rYrccQROaQ46cPb9ul1M0l4O5+O3ze/ds/n7aRfJpHdYbs57c7+NenjpA8vx9Pm2+n4fnhe/l+fZsv568fx53zC7wWXEonNKAl/lpUaSfTfytcFsN8dLgCWyUIHyJlCvQ2IlVQ6gPtUA4BAiTuAGcVyG6BMOXaAGMnybYAwceoAfgTywCS9PXML26p9oNDHqFCC5qnnnygwuC9xH1ClFG6bZ+Lck6cEgsNCWjr7QBEIggvxaB8AHWdb6x3nSx3Pd/5IDUpyFR4B9taOu4g+4KOu3l6eBfMxCn12Z/GABKiM6mElA/LxDFvPiA16ELmilKCefXsoGF9RUPQcxi7BBqPku9rbx5b29StQGEThKwmVmPQhqmQRmg89iwpkw/3pkRSQsVaAzVxIAJk5mH2PDpRxtgb2XpFIP9Ia+Ke9oAp2vQ1qgLmaBa3DfSvqb9ZS+fEAEAOx3Wtv3oH6eM4lDy6c4gjQ2prAesvVsV7MmxxQROGxSSd/1BCgUO5z5j4jEFGtjcBHBQQoUg5Xr1iVVkW3XFjfVnyWCKAP1TK+ZNWogN47bw9lnEmRBxlHA/eZgIfir81w6dq66zrAVgAVVEMJVIfqCfjFzIlqvOIEbu1SGOYVv3UGb2AOxHGMq6GKyK0DXWSuAkp3z5n/AfCPz7H2ZbffL1Px5f44BvvSMkLr418=);lineShape=1;" vertex="1" parent="1">
          <mxGeometry x="378.8615787528265" y="754.6974625048579" width="11.512510882060724" height="25.464722076376574" as="geometry" />
        </mxCell>
        <mxCell id="wgFSj3JI18xGvirok_kf-46" value="" style="shape=stencil(lVbLbttADPwaXYl9crnnNP2PAHFqoa4dOE4ff1+qilSTtqboTZZnVuRwyOWQH972T6+7IYW3y/n0dfdjfL7sh/xpSGk87nfn8aJPQ34c8sPL6bz7cj69H5/n369PE3J6+nb6Pp3wc+YlijKRUvg1vxCm2P+8+TzjD+PxGp+oR0PgQr1sEzITF0OogXrdJtRIwRJyoxC2CS1R6IYQhThuE3ogCZZABaTQE5Vk8IGyAHyhVBweJdCZAvvzM8A3aj7+jOIX6rbIWkR0fqdm8VritI2PYc1vITSKqACdOBt8p4QElZuEI3SpKpQdIS02vE+oxI6QqaCQMjX2BEaiRl8EJXyUfculpfikBeQgnbJtzRgoAt/JjaxCAdRZ8dxsK5OAMmtArg/y8sGtjLPLGPtU9aiubz4C3KoZ+z4OYBKpKYrvy4hM1PwwDTh+8aZLuI87Vau/DhpQL8V3OxgZz61OYvURqhjv5pYaruK2FOfQhDO4SwCWa52ilUhHSweeqELiNBWYQynETtQEVc16n1lXNIa2UxHFfkGNEpCPliqt+A7HryxT4QrfQAZM1driauDf12i54K8/AIqQfZ9NzkJLCEW+EQjEExc5VjxDY6/X+4ovS0k28O7600kTQCPf4iMcLBqPNcQ0WUE8epq9XqXBhei/l8B/4vXh78b5Mh4O88J6/b/fUPXVvN3mx98=);lineShape=1;" vertex="1" parent="1">
          <mxGeometry x="391.60375609316316" y="761.0380862794511" width="24.415532908515615" height="20.369453254531663" as="geometry" />
        </mxCell>
      </root>
    </mxGraphModel>
  </diagram>
</mxfile>
